{"glyphs":{"0":{"ha":767,"x_min":0,"x_max":0,"o":"m 383 957 b 383 19 832 957 832 19 b 383 957 -65 19 -65 957 z m 383 -3 b 383 979 860 -3 860 979 b 383 -3 -93 979 -93 -3 z "},"1":{"ha":329,"x_min":0,"x_max":0,"o":"m 221 915 l 240 947 l 242 947 l 238 908 l 238 0 l 258 0 b 258 972 258 325 258 649 l 236 972 l -1 640 l 14 629 z "},"2":{"ha":707,"x_min":0,"x_max":0,"o":"m 50 663 b 354 954 50 808 151 954 b 657 685 553 954 661 825 b 528 444 654 588 597 504 l 31 22 l 31 1 l 671 1 l 671 22 l 61 22 l 544 429 b 679 689 621 493 678 585 b 354 975 683 840 565 975 b 31 663 139 975 31 819 z "},"3":{"ha":703,"x_min":0,"x_max":0,"o":"m 338 11 b 338 490 758 11 758 490 b 269 490 410 490 285 490 l 269 511 b 338 511 272 511 336 511 b 606 739 519 511 606 625 b 78 804 604 1017 136 1044 l 57 808 b 626 738 122 1074 626 1042 b 453 510 626 642 568 547 l 408 504 l 408 501 l 453 499 b 675 275 589 464 665 372 b 338 -10 689 138 575 -10 b 26 214 138 -10 44 96 l 47 217 b 338 11 64 108 151 11 z "},"4":{"ha":700,"x_min":0,"x_max":0,"o":"m 14 272 l 14 251 l 568 251 l 568 0 l 589 0 l 589 251 l 679 251 l 679 272 l 589 272 l 589 975 l 567 975 z m 40 272 l 551 918 l 571 950 l 572 950 l 568 911 l 568 272 z "},"5":{"ha":706,"x_min":0,"x_max":0,"o":"m 613 971 l 69 971 l 49 971 l 49 950 l 49 556 b 74 543 57 551 65 547 b 485 575 203 600 349 633 b 654 315 597 526 654 421 b 340 22 656 168 551 22 b 46 213 178 22 83 106 l 26 206 b 340 0 67 92 168 0 b 676 315 565 0 678 158 b 488 596 675 432 613 544 b 69 564 350 653 192 622 l 69 950 l 613 950 z "},"6":{"ha":718,"x_min":0,"x_max":0,"o":"m 358 603 b 358 22 778 603 778 22 b 358 603 -61 22 -61 603 z m 78 493 b 358 0 -50 308 43 0 b 358 625 806 0 806 625 b 189 586 289 625 236 611 l 139 551 l 138 553 l 192 617 l 444 974 l 418 974 z "},"7":{"ha":686,"x_min":0,"x_max":0,"o":"m 15 971 l 15 950 l 640 950 l 121 0 l 147 0 l 667 949 l 667 971 z "},"8":{"ha":719,"x_min":0,"x_max":0,"o":"m 360 10 b 360 500 -60 10 -60 500 b 360 10 779 500 779 10 z m 360 972 b 626 749 486 972 626 904 b 360 521 626 635 540 521 b 92 747 179 521 92 635 b 360 972 92 903 231 972 z m 475 519 b 649 747 590 557 649 653 b 360 993 649 871 551 993 b 71 749 221 993 72 915 b 243 519 71 654 128 558 l 301 514 l 301 511 l 242 507 b 360 -11 -83 424 -44 -11 b 475 508 765 -11 803 425 l 429 511 l 431 514 z "},"9":{"ha":722,"x_min":0,"x_max":0,"o":"m 365 371 b 365 953 -54 371 -54 953 b 365 371 786 953 786 371 z m 646 482 b 365 975 774 665 681 975 b 365 349 -82 974 -82 349 b 535 388 435 349 488 363 l 585 422 l 586 422 l 532 357 l 281 0 l 306 0 z "}," ":{"ha":489,"x_min":0,"x_max":0,"o":""},"!":{"ha":142,"x_min":0,"x_max":0,"o":"m 61 968 l 61 124 l 83 124 l 83 968 z m 72 36 b 50 14 60 36 50 26 b 72 -7 50 3 60 -7 b 94 14 85 -7 94 3 b 72 36 94 26 85 36 z "},"\"":{"ha":235,"x_min":0,"x_max":0,"o":"m 61 974 l 61 699 l 83 699 l 83 974 z m 149 974 l 149 699 l 171 699 l 171 974 z "},"$":{"ha":735,"x_min":0,"x_max":0,"o":"m 356 983 b 88 864 250 981 146 940 b 42 701 51 817 36 760 b 356 479 54 515 204 494 l 356 11 b 56 231 225 14 69 88 l 54 240 l 32 238 l 33 228 b 356 -10 50 74 215 -6 l 356 -100 l 375 -100 l 375 -10 b 699 318 556 -4 742 117 b 375 499 665 469 519 483 l 375 963 b 603 874 458 961 546 933 b 656 768 631 843 647 808 l 657 757 l 678 761 l 676 772 b 375 983 650 911 514 982 l 375 1065 l 356 1065 z m 678 314 b 375 11 717 124 542 15 l 375 476 b 678 314 513 463 649 449 z m 106 851 b 356 963 163 926 264 960 l 356 500 b 63 703 211 515 75 536 b 106 851 58 757 71 808 z "},"&":{"ha":794,"x_min":0,"x_max":0,"o":"m 347 511 b 107 739 165 511 107 625 b 635 804 108 1017 576 1044 l 656 808 b 86 738 590 1074 86 1042 b 232 510 86 642 117 547 l 276 504 l 276 501 l 232 497 b 38 275 96 463 47 364 b 375 -10 24 129 136 -14 b 686 214 575 -6 668 96 l 686 490 l 797 490 l 797 511 z m 347 490 l 665 490 l 665 217 b 375 11 649 108 561 11 b 60 271 149 11 50 143 b 347 490 68 381 147 497 z "},",":{"ha":146,"x_min":0,"x_max":0,"o":"m 14 -132 l 96 36 l 58 36 l -8 -132 z "},".":{"ha":153,"x_min":0,"x_max":0,"o":"m 81 49 b 56 21 67 49 56 38 b 81 -4 56 8 67 -4 b 108 21 97 -4 108 8 b 81 49 108 38 97 49 z "},":":{"ha":167,"x_min":0,"x_max":0,"o":"m 81 49 b 56 21 67 49 56 38 b 81 -4 56 8 67 -4 b 108 21 97 -4 108 8 b 81 49 108 38 97 49 z m 81 503 b 56 475 67 503 56 492 b 81 450 56 463 67 450 b 108 475 97 450 108 463 b 81 503 108 492 97 503 z "},";":{"ha":167,"x_min":0,"x_max":0,"o":"m 81 503 b 56 475 67 503 56 492 b 81 450 56 463 67 450 b 108 475 97 450 108 463 b 81 503 108 492 97 503 z m 1 -132 l 67 36 l 106 36 l 24 -132 z "},"?":{"ha":668,"x_min":0,"x_max":0,"o":"m 318 282 b 453 436 317 368 382 399 b 632 682 536 481 629 533 b 307 971 635 833 518 971 b 15 800 158 971 61 897 b 33 790 21 797 26 793 b 307 950 76 881 168 950 b 610 681 506 950 614 821 b 450 458 606 549 528 500 b 297 283 372 418 297 382 b 297 124 297 213 297 194 l 319 124 z m 308 36 b 286 14 296 36 286 26 b 308 -7 286 3 296 -7 b 329 14 319 -7 329 3 b 308 36 329 26 319 36 z "},"A":{"ha":817,"x_min":0,"x_max":0,"o":"m 407 957 l 644 347 l 171 347 z m 786 0 l 810 0 l 419 986 l 396 986 l 6 0 l 29 0 l 161 326 l 653 326 z "},"B":{"ha":781,"x_min":0,"x_max":0,"o":"m 88 949 l 458 949 b 643 825 554 949 615 894 b 643 654 664 771 664 708 b 458 531 615 585 554 531 l 88 531 z m 458 971 b 65 971 367 971 158 971 l 65 0 b 497 0 169 0 392 0 b 549 525 817 0 833 475 b 663 646 604 549 642 593 b 663 833 685 706 685 775 b 458 971 632 911 564 971 z m 88 508 l 497 508 b 497 21 807 508 807 21 l 88 21 z "},"C":{"ha":986,"x_min":0,"x_max":0,"o":"m 949 675 b 849 826 925 732 890 783 b 513 969 763 915 644 969 b 176 826 381 969 263 915 b 38 485 92 739 38 618 b 176 142 38 350 92 229 b 513 -1 263 53 381 -1 b 849 142 644 -1 763 53 b 949 293 890 185 925 236 l 925 293 b 833 158 903 242 871 197 b 513 21 751 74 638 21 b 192 158 388 21 274 74 b 58 485 110 242 58 357 b 192 811 58 611 110 726 b 513 947 274 896 388 947 b 833 811 638 947 751 896 b 925 675 871 772 903 726 z "},"D":{"ha":904,"x_min":0,"x_max":0,"o":"m 85 21 b 85 950 85 322 85 649 l 392 950 b 392 21 1001 950 1001 21 z m 64 971 b 64 0 64 647 64 324 l 392 0 b 392 971 1029 0 1029 971 z "},"E":{"ha":640,"x_min":0,"x_max":0,"o":"m 88 475 l 590 475 l 590 497 l 88 497 l 88 950 l 601 950 l 601 971 l 65 971 l 65 0 l 68 0 l 604 0 l 604 21 l 88 21 z "},"F":{"ha":613,"x_min":0,"x_max":0,"o":"m 86 475 l 531 475 l 531 497 l 86 497 l 86 950 l 589 950 l 589 971 l 65 971 b 65 0 65 647 65 324 l 86 0 z "},"G":{"ha":1007,"x_min":0,"x_max":0,"o":"m 950 681 b 514 981 886 865 706 981 b 176 835 382 981 263 925 b 38 485 92 744 38 621 b 176 135 38 347 92 224 b 514 -12 263 44 382 -12 b 956 296 688 -12 892 118 b 979 393 968 328 976 360 l 522 393 l 522 371 l 951 371 b 514 11 915 165 708 11 b 192 151 388 11 275 64 b 60 485 111 236 60 354 b 192 818 60 615 111 732 b 514 958 275 904 388 958 b 926 681 693 958 860 854 z "},"H":{"ha":782,"x_min":0,"x_max":0,"o":"m 86 971 l 65 971 l 65 0 l 86 0 l 86 482 l 696 482 l 696 0 l 718 0 l 718 971 l 696 971 l 696 503 l 86 503 z "},"I":{"ha":474,"x_min":0,"x_max":0,"o":"m 454 971 b 19 971 310 971 164 971 l 19 951 l 226 951 l 226 21 l 19 21 l 19 0 b 454 0 164 0 310 0 l 454 21 l 247 21 l 247 951 l 454 951 z "},"J":{"ha":549,"x_min":0,"x_max":0,"o":"m 488 971 b 167 971 381 971 274 971 l 167 951 l 467 951 b 467 411 467 785 467 575 b 14 22 467 142 267 22 l 14 0 b 488 411 278 0 488 129 b 488 971 488 582 488 801 z "},"K":{"ha":663,"x_min":0,"x_max":0,"o":"m 65 971 l 65 0 l 86 0 l 86 971 z m 118 475 l 657 0 l 689 0 l 138 488 l 629 971 l 601 971 l 118 497 z "},"L":{"ha":632,"x_min":0,"x_max":0,"o":"m 88 971 l 65 971 l 65 0 b 610 0 247 0 428 0 l 610 22 l 88 22 z "},"M":{"ha":982,"x_min":0,"x_max":0,"o":"m 86 940 l 482 351 l 500 351 l 896 940 l 896 0 l 917 0 l 917 972 l 894 972 l 490 376 l 88 972 l 65 972 l 65 0 l 86 0 z "},"N":{"ha":817,"x_min":0,"x_max":0,"o":"m 88 0 l 88 928 l 729 0 l 751 0 l 751 972 l 731 972 l 731 39 l 85 972 l 65 974 l 65 0 z "},"O":{"ha":1053,"x_min":0,"x_max":0,"o":"m 999 486 b 861 150 999 354 946 236 b 525 8 775 63 656 8 b 190 150 394 8 276 63 b 51 486 106 236 51 354 b 190 822 51 618 106 736 b 525 964 276 910 394 964 b 861 822 656 964 775 910 b 999 486 946 736 999 618 z m 29 486 b 175 133 29 349 86 224 b 525 -14 264 42 389 -14 b 876 133 663 -14 786 42 b 1022 486 965 224 1022 349 b 876 839 1022 624 965 749 b 525 986 786 931 663 986 b 175 839 389 986 264 931 b 29 486 86 749 29 624 z "},"Q":{"ha":1064,"x_min":0,"x_max":0,"o":"m 1006 486 b 867 150 1006 354 951 236 l 864 147 l 588 392 l 554 392 l 847 132 b 531 8 764 56 653 8 b 196 150 400 8 282 63 b 57 486 111 236 57 354 b 196 822 57 618 111 736 b 531 964 282 910 400 964 b 867 822 663 964 781 910 b 1006 486 951 736 1006 618 z m 882 133 b 1028 486 971 224 1028 349 b 882 839 1028 624 971 749 b 531 986 792 931 668 986 b 181 839 394 986 269 931 b 35 486 92 749 35 624 b 181 133 35 349 92 224 b 531 -14 269 42 394 -14 b 864 117 660 -14 776 35 l 996 0 l 1032 0 z "},"R":{"ha":732,"x_min":0,"x_max":0,"o":"m 86 950 l 401 950 b 401 425 763 950 763 425 l 213 425 l 213 404 l 660 0 l 692 0 l 244 404 l 401 404 b 401 972 790 404 790 972 l 76 972 l 65 972 l 65 961 l 65 0 l 86 0 z "},"S":{"ha":763,"x_min":0,"x_max":0,"o":"m 674 757 l 694 761 l 693 772 b 104 864 646 1024 246 1047 b 58 701 68 817 53 760 b 694 314 83 339 632 603 b 382 11 735 121 551 11 b 72 231 250 11 88 85 l 71 240 l 49 238 l 50 228 b 381 -10 67 71 239 -10 b 717 318 565 -10 761 113 b 79 703 650 629 104 363 b 122 851 75 757 88 808 b 376 963 181 928 285 961 b 619 874 464 964 560 938 b 672 768 647 843 664 808 z "},"T":{"ha":724,"x_min":0,"x_max":0,"o":"m 369 -4 l 369 950 l 706 950 l 706 972 l 13 972 l 13 950 l 349 950 l 349 -4 z "},"U":{"ha":818,"x_min":0,"x_max":0,"o":"m 410 -11 b 750 263 569 -11 750 83 l 750 971 l 728 971 l 728 264 b 410 11 728 94 558 11 b 92 263 261 11 92 94 l 92 971 l 69 971 l 69 264 b 410 -11 69 83 249 -11 z "},"V":{"ha":819,"x_min":0,"x_max":0,"o":"m 410 13 l 32 971 l 8 971 l 399 -15 l 422 -15 l 813 971 l 789 971 z "},"W":{"ha":1182,"x_min":0,"x_max":0,"o":"m 829 -10 l 849 -10 l 1174 971 l 1151 971 l 838 26 l 604 688 l 574 688 l 340 26 l 28 971 l 6 971 l 331 -10 l 350 -10 l 589 669 z "},"X":{"ha":753,"x_min":0,"x_max":0,"o":"m 14 971 l 365 485 l 14 0 l 40 0 l 378 467 l 717 0 l 742 0 l 390 485 l 742 971 l 717 971 l 378 504 l 40 971 z "},"Y":{"ha":749,"x_min":0,"x_max":0,"o":"m 6 971 l 363 401 l 363 0 l 385 0 l 385 401 l 742 971 l 715 971 l 374 424 l 32 971 z "},"Z":{"ha":768,"x_min":0,"x_max":0,"o":"m 44 949 l 719 949 l 14 19 l 26 0 b 749 0 267 0 508 0 l 749 21 l 42 21 l 746 946 l 731 971 l 44 971 z "},"¡":{"ha":150,"x_min":0,"x_max":0,"o":"m 61 -7 l 61 838 l 83 838 l 83 -7 z m 72 925 b 94 947 85 925 94 935 b 72 968 94 958 85 968 b 50 947 60 968 50 958 b 72 925 50 935 60 925 z "},"⁄":{"ha":453,"x_min":0,"x_max":0,"o":""},"'":{"ha":163,"x_min":0,"x_max":0,"o":"m 69 974 l 69 699 l 92 699 l 92 974 z "},"·":{"ha":229,"x_min":0,"x_max":0,"o":"m 111 485 b 86 457 97 485 86 474 b 111 432 86 444 97 432 b 139 457 128 432 139 444 b 111 485 139 474 128 485 z "},"…":{"ha":542,"x_min":0,"x_max":0,"o":"m 92 50 b 67 22 78 50 67 39 b 92 -3 67 10 78 -3 b 119 22 108 -3 119 10 b 92 50 119 39 108 50 z m 254 50 b 229 22 240 50 229 39 b 254 -3 229 10 240 -3 b 282 22 271 -3 282 10 b 254 50 282 39 271 50 z m 414 50 b 389 22 400 50 389 39 b 414 -3 389 10 400 -3 b 442 22 431 -3 442 10 b 414 50 442 39 431 50 z "},"¿":{"ha":675,"x_min":0,"x_max":0,"o":"m 351 840 l 374 840 b 374 681 374 769 374 751 b 221 506 374 582 299 546 b 61 283 143 464 65 415 b 364 14 57 143 165 14 b 638 174 503 14 594 83 b 656 164 644 171 650 167 b 364 -7 610 67 513 -7 b 39 282 153 -7 36 131 b 218 528 42 431 135 483 b 353 682 289 565 354 596 z m 363 928 b 385 950 375 928 385 938 b 363 971 385 961 375 971 b 342 950 351 971 342 961 b 363 928 342 938 351 928 z "},"`":{"ha":342,"x_min":0,"x_max":0,"o":"m 221 1008 l 140 1113 l 103 1113 l 194 1008 z "},"´":{"ha":342,"x_min":0,"x_max":0,"o":"m 136 1003 l 228 1107 l 190 1107 l 110 1003 z "},"ˆ":{"ha":433,"x_min":0,"x_max":0,"o":"m 144 1001 l 222 1085 l 299 1001 l 321 1001 l 240 1101 l 203 1101 l 122 1001 z "},"˜":{"ha":483,"x_min":0,"x_max":0,"o":"m 135 1011 b 164 1051 139 1032 150 1046 b 239 1028 188 1061 218 1050 b 318 1008 260 1006 292 997 b 363 1063 342 1017 357 1038 l 347 1067 b 313 1026 343 1047 329 1033 b 253 1042 292 1019 268 1025 b 160 1069 229 1067 193 1083 b 118 1015 138 1061 124 1040 z "},"¨":{"ha":426,"x_min":0,"x_max":0,"o":"m 129 1089 b 104 1061 115 1089 104 1078 b 129 1036 104 1049 115 1036 b 157 1061 146 1036 157 1049 b 129 1089 157 1078 146 1089 z m 297 1089 b 272 1061 283 1089 272 1078 b 297 1036 272 1049 283 1036 b 325 1061 314 1036 325 1049 b 297 1089 325 1078 314 1089 z "},"˚":{"ha":388,"x_min":0,"x_max":0,"o":"m 124 1093 b 192 1022 124 1054 154 1022 b 264 1093 232 1022 264 1053 b 193 1164 264 1132 232 1164 b 124 1093 154 1164 124 1132 z m 149 1093 b 193 1139 149 1118 168 1139 b 239 1093 218 1139 239 1118 b 193 1047 239 1068 218 1047 b 149 1093 168 1047 149 1068 z "},"−":{"ha":686,"x_min":0,"x_max":0,"o":""}," ":{"ha":278,"x_min":0,"x_max":0,"o":""},"Ω":{"ha":978,"x_min":0,"x_max":0,"o":""},"π":{"ha":893,"x_min":0,"x_max":0,"o":""},"€":{"ha":979,"x_min":0,"x_max":0,"o":"m -12 438 l 53 438 b 190 142 64 321 115 218 b 526 -1 276 53 394 -1 b 863 142 658 -1 776 53 b 963 293 904 185 939 236 l 939 293 b 847 158 917 242 885 197 b 526 21 765 74 651 21 b 206 158 401 21 288 74 b 74 438 133 231 85 328 l 328 438 l 328 460 l 72 460 l 72 485 l 72 514 l 328 514 l 328 536 l 75 536 b 206 811 86 642 135 738 b 526 947 288 896 401 947 b 847 811 651 947 765 896 b 939 675 885 772 917 726 l 963 675 b 863 826 939 732 904 783 b 526 969 776 915 658 969 b 190 826 394 969 276 915 b 54 536 117 750 65 649 l -12 536 l -12 514 l 51 514 l 51 485 l 51 460 l -12 460 z "},"ℓ":{"ha":679,"x_min":0,"x_max":0,"o":""},"Ω":{"ha":978,"x_min":0,"x_max":0,"o":""},"℮":{"ha":913,"x_min":0,"x_max":0,"o":"m 863 410 b 456 838 856 647 710 838 b 54 411 206 838 54 647 b 454 -17 54 175 210 -17 b 808 192 628 -17 724 65 b 758 222 792 201 775 213 b 454 36 689 108 599 36 b 229 128 365 36 290 68 l 229 410 z m 682 463 l 229 463 l 229 694 b 456 786 290 756 367 786 b 682 693 542 786 622 750 z "},"∂":{"ha":792,"x_min":0,"x_max":0,"o":""},"∆":{"ha":835,"x_min":0,"x_max":0,"o":""},"∏":{"ha":988,"x_min":0,"x_max":0,"o":""},"∑":{"ha":867,"x_min":0,"x_max":0,"o":""},"∕":{"ha":453,"x_min":0,"x_max":0,"o":""},"∙":{"ha":229,"x_min":0,"x_max":0,"o":""},"√":{"ha":701,"x_min":0,"x_max":0,"o":""},"∞":{"ha":1075,"x_min":0,"x_max":0,"o":""},"∫":{"ha":675,"x_min":0,"x_max":0,"o":""},"≈":{"ha":686,"x_min":0,"x_max":0,"o":""},"≠":{"ha":686,"x_min":0,"x_max":0,"o":""},"≤":{"ha":686,"x_min":0,"x_max":0,"o":""},"≥":{"ha":686,"x_min":0,"x_max":0,"o":""},"◊":{"ha":768,"x_min":0,"x_max":0,"o":"m 688 486 b 404 972 593 649 499 810 l 360 972 b 76 485 265 810 171 647 b 360 0 171 324 265 161 l 404 0 b 688 486 499 163 593 324 z m 661 486 b 381 10 568 326 474 167 b 101 486 289 167 196 326 b 382 963 196 644 289 806 b 661 486 474 806 569 644 z "},"ﬁ":{"ha":932,"x_min":0,"x_max":0,"o":"m 86 475 l 531 475 l 531 497 l 86 497 l 86 950 l 589 950 l 589 971 l 65 971 b 65 0 65 647 65 324 l 86 0 z m 472 0 l 907 0 l 907 19 l 700 19 l 700 951 l 907 951 l 907 971 l 679 971 l 679 19 l 472 19 z "},"ﬂ":{"ha":1242,"x_min":0,"x_max":0,"o":"m 86 475 l 531 475 l 531 497 l 86 497 l 86 950 l 589 950 l 589 971 l 65 971 b 65 0 65 647 65 324 l 86 0 z m 701 971 l 679 971 l 679 0 b 1224 0 861 0 1042 0 l 1224 22 l 701 22 z "},"":{"ha":611,"x_min":0,"x_max":0,"o":"m 88 294 l 590 294 l 590 317 l 88 317 l 88 950 l 601 950 l 601 971 l 65 971 l 65 0 l 68 0 l 604 0 l 604 21 l 88 21 z "},"":{"ha":611,"x_min":0,"x_max":0,"o":"m 88 294 l 590 294 l 590 317 l 88 317 l 88 950 l 601 950 l 601 971 l 65 971 l 65 0 l 68 0 l 604 0 l 604 21 l 88 21 z m 336 1021 l 428 1125 l 390 1125 l 310 1021 z "},"":{"ha":611,"x_min":0,"x_max":0,"o":"m 88 21 l 604 21 l 604 0 l 68 0 l 65 0 l 65 971 l 601 971 l 601 950 l 88 950 l 88 317 l 590 317 l 590 294 l 88 294 z m 372 1024 l 292 1128 l 254 1128 l 346 1024 z "},"":{"ha":611,"x_min":0,"x_max":0,"o":"m 88 294 l 590 294 l 590 317 l 88 317 l 88 950 l 601 950 l 601 971 l 65 971 l 65 0 l 68 0 l 604 0 l 604 21 l 88 21 z m 275 1018 l 353 1101 l 429 1018 l 451 1018 l 371 1118 l 333 1118 l 253 1018 z "},"":{"ha":611,"x_min":0,"x_max":0,"o":"m 88 21 l 604 21 l 604 0 l 68 0 l 65 0 l 65 971 l 601 971 l 601 950 l 88 950 l 88 317 l 590 317 l 590 294 l 88 294 z m 267 1088 b 242 1060 253 1088 242 1076 b 267 1035 242 1047 253 1035 b 294 1060 283 1035 294 1047 b 267 1088 294 1076 283 1088 z m 435 1088 b 410 1060 421 1088 410 1076 b 435 1035 410 1047 421 1035 b 463 1060 451 1035 463 1047 b 435 1088 463 1076 451 1088 z "},"":{"ha":589,"x_min":0,"x_max":0,"o":"m 86 294 l 531 294 l 531 317 l 86 317 l 86 950 l 589 950 l 589 971 l 65 971 b 65 0 65 647 65 324 l 86 0 z "},"":{"ha":782,"x_min":0,"x_max":0,"o":"m 86 971 l 65 971 l 65 0 l 86 0 l 86 294 l 696 294 l 696 0 l 718 0 l 718 971 l 696 971 l 696 315 l 86 315 z "},"":{"ha":817,"x_min":0,"x_max":0,"o":"m 731 544 l 85 972 l 65 974 l 65 0 l 88 0 l 88 946 l 731 518 l 731 0 l 751 0 l 751 972 l 731 972 z "},"":{"ha":817,"x_min":0,"x_max":0,"o":"m 731 544 l 85 972 l 65 974 l 65 0 l 88 0 l 88 946 l 731 518 l 731 0 l 751 0 l 751 972 l 731 972 z m 308 1031 b 338 1071 313 1051 324 1065 b 413 1047 361 1081 392 1069 b 492 1028 433 1025 465 1017 b 536 1082 515 1036 531 1057 l 521 1086 b 486 1046 517 1067 503 1053 b 426 1061 465 1039 442 1044 b 333 1089 403 1086 367 1103 b 292 1035 311 1081 297 1060 z "},"":{"ha":807,"x_min":0,"x_max":0,"o":"m 64 74 b 744 72 64 -65 744 -61 l 744 971 l 722 971 l 722 79 b 403 -8 722 21 563 -8 b 86 79 244 -8 86 22 l 86 971 l 64 971 z "},"":{"ha":807,"x_min":0,"x_max":0,"o":"m 64 74 b 744 72 64 -65 744 -61 l 744 971 l 722 971 l 722 79 b 403 -8 722 21 563 -8 b 86 79 244 -8 86 22 l 86 971 l 64 971 z m 394 1021 l 486 1125 l 449 1125 l 368 1021 z "},"":{"ha":811,"x_min":0,"x_max":0,"o":"m 65 971 l 88 971 l 88 79 b 404 -8 88 22 246 -8 b 724 79 564 -8 724 21 l 724 971 l 746 971 l 746 72 b 65 74 746 -61 65 -65 z m 447 1021 l 367 1125 l 329 1125 l 421 1021 z "},"":{"ha":810,"x_min":0,"x_max":0,"o":"m 65 74 b 746 72 65 -65 746 -61 l 746 971 l 724 971 l 724 79 b 404 -8 724 21 564 -8 b 88 79 246 -8 88 22 l 88 971 l 65 971 z m 338 1018 l 415 1101 l 492 1018 l 514 1018 l 433 1118 l 396 1118 l 315 1018 z "},"":{"ha":808,"x_min":0,"x_max":0,"o":"m 65 971 l 88 971 l 88 79 b 404 -8 88 22 246 -8 b 724 79 564 -8 724 21 l 724 971 l 746 971 l 746 72 b 65 74 746 -61 65 -65 z m 336 1089 b 311 1061 322 1089 311 1078 b 336 1036 311 1049 322 1036 b 364 1061 353 1036 364 1049 b 336 1089 364 1078 353 1089 z m 504 1089 b 479 1061 490 1089 479 1078 b 504 1036 479 1049 490 1036 b 532 1061 521 1036 532 1049 b 504 1089 532 1078 521 1089 z "},"":{"ha":750,"x_min":0,"x_max":0,"o":"m 6 971 l 369 251 l 249 0 l 271 0 l 742 971 l 715 971 l 382 274 l 32 971 z "},"":{"ha":750,"x_min":0,"x_max":0,"o":"m 32 971 l 382 274 l 715 971 l 742 971 l 271 0 l 249 0 l 369 251 l 6 971 z m 297 1089 b 272 1061 283 1089 272 1078 b 297 1036 272 1049 283 1036 b 325 1061 314 1036 325 1049 b 297 1089 325 1078 314 1089 z m 465 1089 b 440 1061 451 1089 440 1078 b 465 1036 440 1049 451 1036 b 493 1061 482 1036 493 1049 b 465 1089 493 1078 482 1089 z "},"":{"ha":517,"x_min":0,"x_max":0,"o":""},"":{"ha":588,"x_min":0,"x_max":0,"o":""},"a":{"ha":817,"x_min":0,"x_max":0,"o":"m 407 957 l 644 347 l 171 347 z m 786 0 l 810 0 l 419 986 l 396 986 l 6 0 l 29 0 l 161 326 l 653 326 z "},"b":{"ha":781,"x_min":0,"x_max":0,"o":"m 88 949 l 458 949 b 643 825 554 949 615 894 b 643 654 664 771 664 708 b 458 531 615 585 554 531 l 88 531 z m 458 971 b 65 971 367 971 158 971 l 65 0 b 497 0 169 0 392 0 b 549 525 817 0 833 475 b 663 646 604 549 642 593 b 663 833 685 706 685 775 b 458 971 632 911 564 971 z m 88 508 l 497 508 b 497 21 807 508 807 21 l 88 21 z "},"c":{"ha":989,"x_min":0,"x_max":0,"o":"m 949 675 b 849 826 925 732 890 783 b 513 969 763 915 644 969 b 176 826 381 969 263 915 b 38 485 92 739 38 618 b 176 142 38 350 92 229 b 513 -1 263 53 381 -1 b 849 142 644 -1 763 53 b 949 293 890 185 925 236 l 925 293 b 833 158 903 242 871 197 b 513 21 751 74 638 21 b 192 158 388 21 274 74 b 58 485 110 242 58 357 b 192 811 58 611 110 726 b 513 947 274 896 388 947 b 833 811 638 947 751 896 b 925 675 871 772 903 726 z "},"d":{"ha":904,"x_min":0,"x_max":0,"o":"m 85 21 b 85 950 85 322 85 649 l 392 950 b 392 21 1001 950 1001 21 z m 64 971 b 64 0 64 647 64 324 l 392 0 b 392 971 1029 0 1029 971 z "},"e":{"ha":640,"x_min":0,"x_max":0,"o":"m 88 475 l 590 475 l 590 497 l 88 497 l 88 950 l 601 950 l 601 971 l 65 971 l 65 0 l 68 0 l 604 0 l 604 21 l 88 21 z "},"f":{"ha":613,"x_min":0,"x_max":0,"o":"m 86 475 l 531 475 l 531 497 l 86 497 l 86 950 l 589 950 l 589 971 l 65 971 b 65 0 65 647 65 324 l 86 0 z "},"g":{"ha":1001,"x_min":0,"x_max":0,"o":"m 950 681 b 514 981 886 865 706 981 b 176 835 382 981 263 925 b 38 485 92 744 38 621 b 176 135 38 347 92 224 b 514 -12 263 44 382 -12 b 956 296 688 -12 892 118 b 979 393 968 328 976 360 l 522 393 l 522 371 l 951 371 b 514 11 915 165 708 11 b 192 151 388 11 275 64 b 60 485 111 236 60 354 b 192 818 60 615 111 732 b 514 958 275 904 388 958 b 926 681 693 958 860 854 z "},"h":{"ha":782,"x_min":0,"x_max":0,"o":"m 86 971 l 65 971 l 65 0 l 86 0 l 86 482 l 696 482 l 696 0 l 718 0 l 718 971 l 696 971 l 696 503 l 86 503 z "},"i":{"ha":500,"x_min":0,"x_max":0,"o":"m 468 971 b 33 971 324 971 178 971 l 33 951 l 240 951 l 240 21 l 33 21 l 33 0 b 468 0 178 0 324 0 l 468 21 l 261 21 l 261 951 l 468 951 z "},"j":{"ha":547,"x_min":0,"x_max":0,"o":"m 483 971 b 163 971 376 971 269 971 l 163 951 l 463 951 b 463 411 463 785 463 575 b 10 22 463 142 263 22 l 10 0 b 483 411 274 0 483 129 b 483 971 483 582 483 801 z "},"k":{"ha":663,"x_min":0,"x_max":0,"o":"m 65 971 l 65 0 l 86 0 l 86 971 z m 118 475 l 644 0 l 676 0 l 138 488 l 653 971 l 625 971 l 118 497 z "},"l":{"ha":632,"x_min":0,"x_max":0,"o":"m 88 971 l 65 971 l 65 0 b 610 0 247 0 428 0 l 610 22 l 88 22 z "},"m":{"ha":982,"x_min":0,"x_max":0,"o":"m 86 940 l 482 351 l 500 351 l 896 940 l 896 0 l 917 0 l 917 972 l 894 972 l 490 376 l 88 972 l 65 972 l 65 0 l 86 0 z "},"n":{"ha":817,"x_min":0,"x_max":0,"o":"m 88 0 l 88 928 l 729 0 l 751 0 l 751 972 l 731 972 l 731 39 l 85 972 l 65 974 l 65 0 z "},"o":{"ha":1069,"x_min":0,"x_max":0,"o":"m 1010 486 b 872 150 1010 354 957 236 b 536 8 786 63 667 8 b 201 150 406 8 288 63 b 63 486 117 236 63 354 b 201 822 63 618 117 736 b 536 964 288 910 406 964 b 872 822 667 964 786 910 b 1010 486 957 736 1010 618 z m 40 486 b 186 133 40 349 97 224 b 536 -14 275 42 400 -14 b 888 133 674 -14 797 42 b 1033 486 976 224 1033 349 b 888 839 1033 624 976 749 b 536 986 797 931 674 986 b 186 839 400 986 275 931 b 40 486 97 749 40 624 z "},"p":{"ha":729,"x_min":0,"x_max":0,"o":"m 65 961 b 65 0 65 640 65 321 l 88 0 l 88 369 l 401 369 b 401 972 790 369 790 972 l 76 972 l 65 972 z m 88 390 l 88 950 l 401 950 b 401 390 763 950 763 390 z "},"q":{"ha":1064,"x_min":0,"x_max":0,"o":"m 1000 486 b 861 150 1000 354 946 236 l 858 147 l 582 392 l 549 392 l 842 132 b 525 8 758 56 647 8 b 51 486 264 8 51 225 b 525 964 51 747 264 964 b 1000 486 786 964 1000 749 z m 876 133 b 1025 486 965 224 1025 349 b 525 986 1025 764 797 986 b 29 486 251 986 29 760 b 525 -14 29 213 251 -14 b 858 117 654 -14 771 35 l 990 0 l 1026 0 z "},"r":{"ha":735,"x_min":0,"x_max":0,"o":"m 86 950 l 401 950 b 401 425 763 950 763 425 l 213 425 l 213 404 l 660 0 l 692 0 l 244 404 l 401 404 b 401 972 790 404 790 972 l 76 972 l 65 972 l 65 961 l 65 0 l 86 0 z "},"s":{"ha":756,"x_min":0,"x_max":0,"o":"m 663 757 l 683 761 l 682 772 b 93 864 635 1024 235 1047 b 47 701 57 817 42 760 b 683 314 72 339 621 603 b 371 11 724 121 540 11 b 61 231 239 11 76 85 l 60 240 l 38 238 l 39 228 b 369 -10 56 71 228 -10 b 704 318 554 -10 749 113 b 68 703 638 629 93 363 b 111 851 64 757 76 808 b 365 963 169 928 274 961 b 608 874 453 964 549 938 b 661 768 636 843 653 808 z "},"t":{"ha":724,"x_min":0,"x_max":0,"o":"m 369 0 l 369 950 l 706 950 l 706 972 l 13 972 l 13 950 l 349 950 l 349 0 z "},"u":{"ha":808,"x_min":0,"x_max":0,"o":"m 404 -11 b 744 263 564 -11 744 83 l 744 971 l 722 971 l 722 264 b 404 11 722 94 553 11 b 86 263 256 11 86 94 l 86 971 l 64 971 l 64 264 b 404 -11 64 83 243 -11 z "},"v":{"ha":819,"x_min":0,"x_max":0,"o":"m 410 13 l 32 971 l 8 971 l 399 -15 l 422 -15 l 813 971 l 789 971 z "},"w":{"ha":1182,"x_min":0,"x_max":0,"o":"m 829 -10 l 849 -10 l 1174 971 l 1151 971 l 838 26 l 604 688 l 574 688 l 340 26 l 28 971 l 6 971 l 331 -10 l 350 -10 l 589 669 z "},"x":{"ha":753,"x_min":0,"x_max":0,"o":"m 14 971 l 365 485 l 14 0 l 40 0 l 378 467 l 717 0 l 742 0 l 390 485 l 742 971 l 717 971 l 378 504 l 40 971 z "},"y":{"ha":749,"x_min":0,"x_max":0,"o":"m 6 971 l 363 401 l 363 0 l 385 0 l 385 401 l 742 971 l 715 971 l 374 424 l 32 971 z "},"z":{"ha":769,"x_min":0,"x_max":0,"o":"m 44 949 l 719 949 l 14 19 l 26 0 b 749 0 267 0 508 0 l 749 21 l 42 21 l 744 946 l 731 971 l 44 971 z "},"ý":{"ha":749,"x_min":0,"x_max":0,"o":"m 6 971 l 363 401 l 363 0 l 385 0 l 385 401 l 742 971 l 715 971 l 374 424 l 32 971 z m 372 1021 l 464 1125 l 426 1125 l 346 1021 z "},"P":{"ha":724,"x_min":0,"x_max":0,"o":"m 65 961 b 65 0 65 640 65 321 l 88 0 l 88 369 l 401 369 b 401 972 790 369 790 972 l 76 972 l 65 972 z m 88 390 l 88 950 l 401 950 b 401 390 763 950 763 390 z "},"À":{"ha":817,"x_min":0,"x_max":0,"o":"m 407 957 l 644 347 l 171 347 z m 786 0 l 810 0 l 419 986 l 396 986 l 6 0 l 29 0 l 161 326 l 653 326 z m 419 1021 l 339 1125 l 301 1125 l 393 1021 z "},"Ÿ":{"ha":749,"x_min":0,"x_max":0,"o":"m 32 971 l 374 424 l 715 971 l 742 971 l 385 401 l 385 0 l 363 0 l 363 401 l 6 971 z m 289 1089 b 264 1061 275 1089 264 1078 b 289 1036 264 1049 275 1036 b 317 1061 306 1036 317 1049 b 289 1089 317 1078 306 1089 z m 457 1089 b 432 1061 443 1089 432 1078 b 457 1036 432 1049 443 1036 b 485 1061 474 1036 485 1049 b 457 1089 485 1078 474 1089 z "},"Ý":{"ha":749,"x_min":0,"x_max":0,"o":"m 6 971 l 363 401 l 363 0 l 385 0 l 385 401 l 742 971 l 715 971 l 374 424 l 32 971 z m 374 1007 l 465 1111 l 428 1111 l 347 1007 z "},"ÿ":{"ha":749,"x_min":0,"x_max":0,"o":"m 32 971 l 374 424 l 715 971 l 742 971 l 385 401 l 385 0 l 363 0 l 363 401 l 6 971 z m 292 1089 b 267 1061 278 1089 267 1078 b 292 1036 267 1049 278 1036 b 319 1061 308 1036 319 1049 b 292 1089 319 1078 308 1089 z m 460 1089 b 435 1061 446 1089 435 1078 b 460 1036 435 1049 446 1036 b 488 1061 476 1036 488 1049 b 460 1089 488 1078 476 1089 z "},"Á":{"ha":817,"x_min":0,"x_max":0,"o":"m 407 957 l 644 347 l 171 347 z m 786 0 l 810 0 l 419 986 l 396 986 l 6 0 l 29 0 l 161 326 l 653 326 z m 421 1021 l 513 1125 l 475 1125 l 394 1021 z "},"Â":{"ha":817,"x_min":0,"x_max":0,"o":"m 407 957 l 644 347 l 171 347 z m 786 0 l 810 0 l 419 986 l 396 986 l 6 0 l 29 0 l 161 326 l 653 326 z m 331 1018 l 408 1101 l 485 1018 l 507 1018 l 426 1118 l 389 1118 l 308 1018 z "},"Ã":{"ha":817,"x_min":0,"x_max":0,"o":"m 407 957 l 644 347 l 171 347 z m 786 0 l 810 0 l 419 986 l 396 986 l 6 0 l 29 0 l 161 326 l 653 326 z m 306 1024 b 335 1064 310 1044 321 1058 b 410 1040 358 1074 389 1063 b 489 1021 431 1018 463 1010 b 533 1075 513 1029 528 1050 l 518 1079 b 483 1039 514 1060 500 1046 b 424 1054 463 1032 439 1038 b 331 1082 400 1079 364 1096 b 289 1028 308 1074 294 1053 z "},"Ä":{"ha":817,"x_min":0,"x_max":0,"o":"m 407 957 l 644 347 l 171 347 z m 786 0 l 810 0 l 419 986 l 396 986 l 6 0 l 29 0 l 161 326 l 653 326 z m 322 1090 b 297 1063 308 1090 297 1079 b 322 1038 297 1050 308 1038 b 350 1063 339 1038 350 1050 b 322 1090 350 1079 339 1090 z m 490 1090 b 465 1063 476 1090 465 1079 b 490 1038 465 1050 476 1038 b 518 1063 507 1038 518 1050 b 490 1090 518 1079 507 1090 z "},"Å":{"ha":817,"x_min":0,"x_max":0,"o":"m 407 957 l 644 347 l 171 347 z m 786 0 l 810 0 l 419 986 l 396 986 l 6 0 l 29 0 l 161 326 l 653 326 z m 336 1042 b 404 971 336 1003 367 971 b 476 1042 444 971 476 1001 b 406 1113 476 1081 444 1113 b 336 1042 367 1113 336 1081 z m 361 1042 b 406 1088 361 1067 381 1088 b 451 1042 431 1088 451 1067 b 406 996 451 1017 431 996 b 361 1042 381 996 361 1017 z "},"Æ":{"ha":1150,"x_min":0,"x_max":0,"o":"m 621 396 l 1124 396 l 1124 417 l 621 417 l 621 951 l 1135 951 l 1135 972 l 550 972 l 6 0 l 29 0 l 253 396 l 599 396 l 599 0 l 1138 0 l 1138 21 l 621 21 z m 564 951 l 599 951 l 599 417 l 264 417 z "},"æ":{"ha":1150,"x_min":0,"x_max":0,"o":"m 621 396 l 1124 396 l 1124 417 l 621 417 l 621 951 l 1135 951 l 1135 972 l 550 972 l 6 0 l 29 0 l 253 396 l 599 396 l 599 0 l 1138 0 l 1138 21 l 621 21 z m 564 951 l 599 951 l 599 417 l 264 417 z "},"à":{"ha":817,"x_min":0,"x_max":0,"o":"m 407 957 l 644 347 l 171 347 z m 786 0 l 810 0 l 419 986 l 396 986 l 6 0 l 29 0 l 161 326 l 653 326 z m 425 1015 l 344 1119 l 307 1119 l 399 1015 z "},"á":{"ha":817,"x_min":0,"x_max":0,"o":"m 407 957 l 644 347 l 171 347 z m 786 0 l 810 0 l 419 986 l 396 986 l 6 0 l 29 0 l 161 326 l 653 326 z m 418 1013 l 510 1117 l 472 1117 l 392 1013 z "},"â":{"ha":817,"x_min":0,"x_max":0,"o":"m 407 957 l 644 347 l 171 347 z m 786 0 l 810 0 l 419 986 l 396 986 l 6 0 l 29 0 l 161 326 l 653 326 z m 331 1010 l 408 1093 l 485 1010 l 507 1010 l 426 1110 l 389 1110 l 308 1010 z "},"ã":{"ha":817,"x_min":0,"x_max":0,"o":"m 407 957 l 644 347 l 171 347 z m 786 0 l 810 0 l 419 986 l 396 986 l 6 0 l 29 0 l 161 326 l 653 326 z m 303 1019 b 332 1060 307 1040 318 1054 b 407 1036 356 1069 386 1058 b 486 1017 428 1014 460 1006 b 531 1071 510 1025 525 1046 l 515 1075 b 481 1035 511 1056 497 1042 b 421 1050 460 1028 436 1033 b 328 1078 397 1075 361 1092 b 286 1024 306 1069 292 1049 z "},"ä":{"ha":817,"x_min":0,"x_max":0,"o":"m 407 957 l 644 347 l 171 347 z m 786 0 l 810 0 l 419 986 l 396 986 l 6 0 l 29 0 l 161 326 l 653 326 z m 322 1089 b 297 1061 308 1089 297 1078 b 322 1036 297 1049 308 1036 b 350 1061 339 1036 350 1049 b 322 1089 350 1078 339 1089 z m 490 1089 b 465 1061 476 1089 465 1078 b 490 1036 465 1049 476 1036 b 518 1061 507 1036 518 1049 b 490 1089 518 1078 507 1089 z "},"å":{"ha":817,"x_min":0,"x_max":0,"o":"m 407 957 l 644 347 l 171 347 z m 786 0 l 810 0 l 419 986 l 396 986 l 6 0 l 29 0 l 161 326 l 653 326 z m 339 1044 b 407 974 339 1006 369 974 b 479 1044 447 974 479 1004 b 408 1115 479 1083 447 1115 b 339 1044 369 1115 339 1083 z m 364 1044 b 408 1090 364 1069 383 1090 b 454 1044 433 1090 454 1069 b 408 999 454 1019 433 999 b 364 1044 383 999 364 1019 z "},"Ç":{"ha":971,"x_min":0,"x_max":0,"o":"m 946 675 b 846 826 922 732 888 783 b 510 969 760 915 642 969 b 174 826 378 969 260 915 b 35 485 89 739 35 618 b 174 142 35 350 89 229 b 493 -1 256 56 368 3 l 454 -86 b 550 -112 488 -90 517 -93 b 590 -162 568 -124 586 -140 b 592 -175 592 -167 592 -171 b 590 -189 592 -181 592 -185 b 550 -239 586 -211 568 -228 b 467 -260 525 -254 496 -260 b 361 -208 431 -260 378 -243 b 356 -194 358 -204 357 -199 l 336 -199 b 407 -269 343 -233 374 -257 b 467 -281 426 -276 447 -281 b 560 -256 499 -281 532 -272 b 610 -193 583 -242 604 -221 b 613 -175 611 -187 613 -182 b 610 -158 613 -169 611 -164 b 560 -94 604 -131 583 -108 b 482 -71 536 -81 510 -74 l 514 -1 b 846 142 644 0 761 54 b 946 293 888 185 922 236 l 922 293 b 831 158 900 242 868 197 b 510 21 749 74 635 21 b 189 158 385 21 271 74 b 56 485 107 242 56 357 b 189 811 56 611 107 726 b 510 947 271 896 385 947 b 831 811 635 947 749 896 b 922 675 868 772 900 726 z "},"ç":{"ha":915,"x_min":0,"x_max":0,"o":"m 492 -1 b 811 142 617 3 729 57 b 911 293 853 185 888 236 l 888 293 b 796 158 865 242 833 197 b 475 21 714 74 600 21 b 154 158 350 21 236 74 b 21 485 72 242 21 357 b 154 811 21 611 72 726 b 475 947 236 896 350 947 b 796 811 600 947 714 896 b 888 675 833 772 865 726 l 911 675 b 811 826 888 732 853 783 b 475 969 725 915 607 969 b 139 826 343 969 225 915 b 0 485 54 739 0 618 b 139 142 0 350 54 229 b 469 -1 224 54 340 0 l 432 -85 b 528 -111 465 -89 494 -92 b 568 -161 546 -122 564 -139 b 569 -174 569 -165 569 -169 b 568 -187 569 -179 569 -183 b 528 -237 564 -210 546 -226 b 444 -258 503 -253 474 -258 b 339 -207 408 -258 356 -242 b 333 -193 336 -203 335 -197 l 314 -197 b 385 -268 321 -232 351 -256 b 444 -279 404 -275 425 -279 b 538 -254 476 -279 510 -271 b 588 -192 561 -240 582 -219 b 590 -174 589 -186 590 -181 b 588 -157 590 -168 589 -162 b 538 -93 582 -129 561 -107 b 460 -69 514 -79 488 -72 z "},"Œ":{"ha":1151,"x_min":0,"x_max":0,"o":"m 626 475 l 1129 475 l 1129 497 l 626 497 l 626 956 l 1140 956 l 1140 976 l 606 976 b 522 983 579 981 551 983 b 172 851 386 983 261 943 b 26 486 83 761 26 624 b 172 124 26 349 83 214 b 522 -11 261 32 386 -11 b 617 -3 554 -11 586 -8 l 1143 -3 l 1143 18 l 626 18 z m 522 961 b 604 954 550 961 578 958 l 604 17 b 522 11 576 13 550 11 b 188 140 392 11 274 53 b 49 486 103 226 49 354 b 188 835 49 618 103 749 b 522 961 274 922 392 961 z "},"œ":{"ha":1151,"x_min":0,"x_max":0,"o":"m 626 475 l 1129 475 l 1129 497 l 626 497 l 626 956 l 1140 956 l 1140 976 l 606 976 b 522 983 579 981 551 983 b 172 851 386 983 261 943 b 26 486 83 761 26 624 b 172 124 26 349 83 214 b 522 -11 261 32 386 -11 b 617 -3 554 -11 586 -8 l 1143 -3 l 1143 18 l 626 18 z m 522 961 b 604 954 550 961 578 958 l 604 17 b 522 11 576 13 550 11 b 188 140 392 11 274 53 b 49 486 103 226 49 354 b 188 835 49 618 103 749 b 522 961 274 922 392 961 z "},"¥":{"ha":749,"x_min":0,"x_max":0,"o":"m 213 313 l 363 313 l 363 0 l 385 0 l 385 313 l 553 313 l 553 333 l 385 333 l 385 399 l 553 399 l 553 421 l 397 421 l 742 971 l 715 971 l 374 424 l 32 971 l 6 971 l 350 421 l 213 421 l 213 399 l 363 399 l 363 333 l 213 333 z "},"Š":{"ha":729,"x_min":0,"x_max":0,"o":"m 444 1128 l 367 1044 l 290 1128 l 268 1128 l 349 1028 l 386 1028 l 467 1128 z m 654 757 l 675 761 l 674 772 b 85 864 626 1024 226 1047 b 39 701 49 817 33 760 b 675 314 64 339 613 603 b 363 11 715 121 532 11 b 53 231 231 11 68 85 l 51 240 l 29 238 l 31 228 b 361 -10 47 71 219 -10 b 696 318 546 -10 740 113 b 60 703 629 629 85 363 b 103 851 56 757 68 808 b 357 963 161 928 265 961 b 600 874 444 964 540 938 b 653 768 628 843 644 808 z "},"š":{"ha":732,"x_min":0,"x_max":0,"o":"m 444 1128 l 367 1044 l 290 1128 l 268 1128 l 349 1028 l 386 1028 l 467 1128 z m 654 757 l 675 761 l 674 772 b 85 864 626 1024 226 1047 b 39 701 49 817 33 760 b 675 314 64 339 613 603 b 363 11 715 121 532 11 b 53 231 231 11 68 85 l 51 240 l 29 238 l 31 228 b 361 -10 47 71 219 -10 b 696 318 546 -10 740 113 b 60 703 629 629 85 363 b 103 851 56 757 68 808 b 357 963 161 928 265 961 b 600 874 444 964 540 938 b 653 768 628 843 644 808 z "},"Ž":{"ha":733,"x_min":0,"x_max":0,"o":"m 463 1128 l 385 1044 l 308 1128 l 286 1128 l 367 1028 l 404 1028 l 485 1128 z m 28 949 l 703 949 l -3 19 l 10 0 b 732 0 250 0 492 0 l 732 21 l 25 21 l 729 946 l 714 971 l 28 971 z "},"ž":{"ha":733,"x_min":0,"x_max":0,"o":"m 481 1128 l 403 1044 l 326 1128 l 304 1128 l 385 1028 l 422 1028 l 503 1128 z m 28 949 l 703 949 l -3 19 l 10 0 b 732 0 250 0 492 0 l 732 21 l 25 21 l 729 946 l 714 971 l 28 971 z "},"È":{"ha":611,"x_min":0,"x_max":0,"o":"m 88 21 l 604 21 l 604 0 l 68 0 l 65 0 l 65 971 l 601 971 l 601 950 l 88 950 l 88 497 l 590 497 l 590 475 l 88 475 z m 376 1022 l 296 1126 l 258 1126 l 350 1022 z "},"É":{"ha":611,"x_min":0,"x_max":0,"o":"m 88 475 l 590 475 l 590 497 l 88 497 l 88 950 l 601 950 l 601 971 l 65 971 l 65 0 l 68 0 l 604 0 l 604 21 l 88 21 z m 329 1019 l 421 1124 l 383 1124 l 303 1019 z "},"Ê":{"ha":611,"x_min":0,"x_max":0,"o":"m 88 475 l 590 475 l 590 497 l 88 497 l 88 950 l 601 950 l 601 971 l 65 971 l 65 0 l 68 0 l 604 0 l 604 21 l 88 21 z m 272 1015 l 350 1099 l 426 1015 l 449 1015 l 368 1115 l 331 1115 l 250 1015 z "},"Ë":{"ha":611,"x_min":0,"x_max":0,"o":"m 88 21 l 604 21 l 604 0 l 68 0 l 65 0 l 65 971 l 601 971 l 601 950 l 88 950 l 88 497 l 590 497 l 590 475 l 88 475 z m 260 1086 b 235 1058 246 1086 235 1075 b 260 1033 235 1046 246 1033 b 288 1058 276 1033 288 1046 b 260 1086 288 1075 276 1086 z m 428 1086 b 403 1058 414 1086 403 1075 b 428 1033 403 1046 414 1033 b 456 1058 444 1033 456 1046 b 428 1086 456 1075 444 1086 z "},"Ì":{"ha":474,"x_min":0,"x_max":0,"o":"m 454 951 l 247 951 l 247 21 l 454 21 l 454 0 b 19 0 310 0 164 0 l 19 21 l 226 21 l 226 951 l 19 951 l 19 971 b 454 971 164 971 310 971 z m 253 1022 l 172 1126 l 135 1126 l 226 1022 z "},"Í":{"ha":474,"x_min":0,"x_max":0,"o":"m 454 971 b 19 971 310 971 164 971 l 19 951 l 226 951 l 226 21 l 19 21 l 19 0 b 454 0 164 0 310 0 l 454 21 l 247 21 l 247 951 l 454 951 z m 249 1021 l 340 1125 l 303 1125 l 222 1021 z "},"Î":{"ha":474,"x_min":0,"x_max":0,"o":"m 454 971 b 19 971 310 971 164 971 l 19 951 l 226 951 l 226 21 l 19 21 l 19 0 b 454 0 164 0 310 0 l 454 21 l 247 21 l 247 951 l 454 951 z m 160 1018 l 238 1101 l 314 1018 l 336 1018 l 256 1118 l 218 1118 l 138 1018 z "},"Ï":{"ha":474,"x_min":0,"x_max":0,"o":"m 454 951 l 247 951 l 247 21 l 454 21 l 454 0 b 19 0 310 0 164 0 l 19 21 l 226 21 l 226 951 l 19 951 l 19 971 b 454 971 164 971 310 971 z m 153 1089 b 128 1061 139 1089 128 1078 b 153 1036 128 1049 139 1036 b 181 1061 169 1036 181 1049 b 153 1089 181 1078 169 1089 z m 321 1089 b 296 1061 307 1089 296 1078 b 321 1036 296 1049 307 1036 b 349 1061 338 1036 349 1049 b 321 1089 349 1078 338 1089 z "},"Ñ":{"ha":817,"x_min":0,"x_max":0,"o":"m 88 0 l 88 928 l 729 0 l 751 0 l 751 972 l 731 972 l 731 39 l 85 972 l 65 974 l 65 0 z m 314 1031 b 343 1071 318 1051 329 1065 b 418 1047 367 1081 397 1069 b 497 1028 439 1025 471 1017 b 542 1082 521 1036 536 1057 l 526 1086 b 492 1046 522 1067 508 1053 b 432 1061 471 1039 447 1044 b 339 1089 408 1086 372 1103 b 297 1035 317 1081 303 1060 z "},"Ò":{"ha":1044,"x_min":0,"x_max":0,"o":"m 996 486 b 858 822 996 618 943 736 b 522 964 772 910 653 964 b 188 822 392 964 274 910 b 49 486 103 736 49 618 b 188 150 49 354 103 236 b 522 8 274 63 392 8 b 858 150 653 8 772 63 b 996 486 943 236 996 354 z m 26 486 b 172 839 26 624 83 749 b 522 986 261 931 386 986 b 874 839 660 986 783 931 b 1019 486 963 749 1019 624 b 874 133 1019 349 963 224 b 522 -14 783 42 660 -14 b 172 133 386 -14 261 42 b 26 486 83 224 26 349 z m 542 1032 l 461 1136 l 424 1136 l 515 1032 z "},"Ó":{"ha":1044,"x_min":0,"x_max":0,"o":"m 996 486 b 858 150 996 354 943 236 b 522 8 772 63 653 8 b 188 150 392 8 274 63 b 49 486 103 236 49 354 b 188 822 49 618 103 736 b 522 964 274 910 392 964 b 858 822 653 964 772 910 b 996 486 943 736 996 618 z m 26 486 b 172 133 26 349 83 224 b 522 -14 261 42 386 -14 b 874 133 660 -14 783 42 b 1019 486 963 224 1019 349 b 874 839 1019 624 963 749 b 522 986 783 931 660 986 b 172 839 386 986 261 931 b 26 486 83 749 26 624 z m 543 1033 l 635 1138 l 597 1138 l 517 1033 z "},"Ô":{"ha":1044,"x_min":0,"x_max":0,"o":"m 996 486 b 858 150 996 354 943 236 b 522 8 772 63 653 8 b 188 150 392 8 274 63 b 49 486 103 236 49 354 b 188 822 49 618 103 736 b 522 964 274 910 392 964 b 858 822 653 964 772 910 b 996 486 943 736 996 618 z m 26 486 b 172 133 26 349 83 224 b 522 -14 261 42 386 -14 b 874 133 660 -14 783 42 b 1019 486 963 224 1019 349 b 874 839 1019 624 963 749 b 522 986 783 931 660 986 b 172 839 386 986 261 931 b 26 486 83 749 26 624 z m 446 1025 l 524 1108 l 600 1025 l 622 1025 l 542 1125 l 504 1125 l 424 1025 z "},"Õ":{"ha":1044,"x_min":0,"x_max":0,"o":"m 996 486 b 858 150 996 354 943 236 b 522 8 772 63 653 8 b 188 150 392 8 274 63 b 49 486 103 236 49 354 b 188 822 49 618 103 736 b 522 964 274 910 392 964 b 858 822 653 964 772 910 b 996 486 943 736 996 618 z m 26 486 b 172 133 26 349 83 224 b 522 -14 261 42 386 -14 b 874 133 660 -14 783 42 b 1019 486 963 224 1019 349 b 874 839 1019 624 963 749 b 522 986 783 931 660 986 b 172 839 386 986 261 931 b 26 486 83 749 26 624 z m 422 1038 b 451 1078 426 1058 438 1072 b 526 1054 475 1088 506 1076 b 606 1035 547 1032 579 1024 b 650 1089 629 1043 644 1064 l 635 1093 b 600 1053 631 1074 617 1060 b 540 1068 579 1046 556 1051 b 447 1096 517 1093 481 1110 b 406 1042 425 1088 411 1067 z "},"Ö":{"ha":1044,"x_min":0,"x_max":0,"o":"m 996 486 b 858 822 996 618 943 736 b 522 964 772 910 653 964 b 188 822 392 964 274 910 b 49 486 103 736 49 618 b 188 150 49 354 103 236 b 522 8 274 63 392 8 b 858 150 653 8 772 63 b 996 486 943 236 996 354 z m 26 486 b 172 839 26 624 83 749 b 522 986 261 931 386 986 b 874 839 660 986 783 931 b 1019 486 963 749 1019 624 b 874 133 1019 349 963 224 b 522 -14 783 42 660 -14 b 172 133 386 -14 261 42 b 26 486 83 224 26 349 z m 436 1094 b 411 1067 422 1094 411 1083 b 436 1042 411 1054 422 1042 b 464 1067 453 1042 464 1054 b 436 1094 464 1083 453 1094 z m 604 1094 b 579 1067 590 1094 579 1083 b 604 1042 579 1054 590 1042 b 632 1067 621 1042 632 1054 b 604 1094 632 1083 621 1094 z "},"Ø":{"ha":1044,"x_min":0,"x_max":0,"o":"m 26 486 b 172 133 26 349 83 224 b 243 72 193 111 218 90 l 167 -49 l 193 -49 l 263 60 b 522 -14 338 13 428 -14 b 874 133 660 -14 783 42 b 1019 486 963 224 1019 349 b 874 839 1019 624 963 749 b 800 900 851 861 826 882 l 874 1015 l 846 1015 l 781 913 b 522 986 706 960 617 986 b 172 839 386 986 261 931 b 26 486 83 749 26 624 z m 996 486 b 858 150 996 354 943 236 b 522 8 772 63 653 8 b 275 79 432 8 347 33 l 788 881 b 858 822 813 864 836 843 b 996 486 943 736 996 618 z m 522 964 b 768 894 611 964 696 939 l 256 92 b 188 150 231 108 208 128 b 49 486 103 236 49 354 b 188 822 49 618 103 736 b 522 964 274 910 392 964 z "},"Ù":{"ha":808,"x_min":0,"x_max":0,"o":"m 404 -11 b 64 264 243 -11 64 83 l 64 971 l 86 971 l 86 263 b 404 11 86 94 256 11 b 722 264 553 11 722 94 l 722 971 l 744 971 l 744 263 b 404 -11 744 83 564 -11 z m 450 1021 l 369 1125 l 332 1125 l 424 1021 z "},"Ú":{"ha":808,"x_min":0,"x_max":0,"o":"m 404 -11 b 744 263 564 -11 744 83 l 744 971 l 722 971 l 722 264 b 404 11 722 94 553 11 b 86 263 256 11 86 94 l 86 971 l 64 971 l 64 264 b 404 -11 64 83 243 -11 z m 410 1021 l 501 1125 l 464 1125 l 383 1021 z "},"Û":{"ha":808,"x_min":0,"x_max":0,"o":"m 404 -11 b 744 263 564 -11 744 83 l 744 971 l 722 971 l 722 264 b 404 11 722 94 553 11 b 86 263 256 11 86 94 l 86 971 l 64 971 l 64 264 b 404 -11 64 83 243 -11 z m 329 1018 l 407 1101 l 483 1018 l 506 1018 l 425 1118 l 388 1118 l 307 1018 z "},"Ü":{"ha":808,"x_min":0,"x_max":0,"o":"m 404 -11 b 64 264 243 -11 64 83 l 64 971 l 86 971 l 86 263 b 404 11 86 94 256 11 b 722 264 553 11 722 94 l 722 971 l 744 971 l 744 263 b 404 -11 744 83 564 -11 z m 333 1089 b 308 1061 319 1089 308 1078 b 333 1036 308 1049 319 1036 b 361 1061 350 1036 361 1049 b 333 1089 361 1078 350 1089 z m 501 1089 b 476 1061 488 1089 476 1078 b 501 1036 476 1049 488 1036 b 529 1061 518 1036 529 1049 b 501 1089 529 1078 518 1089 z "},"è":{"ha":611,"x_min":0,"x_max":0,"o":"m 88 21 l 604 21 l 604 0 l 68 0 l 65 0 l 65 971 l 601 971 l 601 950 l 88 950 l 88 497 l 590 497 l 590 475 l 88 475 z m 369 1024 l 289 1128 l 251 1128 l 343 1024 z "},"é":{"ha":611,"x_min":0,"x_max":0,"o":"m 88 475 l 590 475 l 590 497 l 88 497 l 88 950 l 601 950 l 601 971 l 65 971 l 65 0 l 68 0 l 604 0 l 604 21 l 88 21 z m 340 1021 l 432 1125 l 394 1125 l 314 1021 z "},"ê":{"ha":611,"x_min":0,"x_max":0,"o":"m 88 475 l 590 475 l 590 497 l 88 497 l 88 950 l 601 950 l 601 971 l 65 971 l 65 0 l 68 0 l 604 0 l 604 21 l 88 21 z m 275 1018 l 353 1101 l 429 1018 l 451 1018 l 371 1118 l 333 1118 l 253 1018 z "},"ë":{"ha":611,"x_min":0,"x_max":0,"o":"m 88 21 l 604 21 l 604 0 l 68 0 l 65 0 l 65 971 l 601 971 l 601 950 l 88 950 l 88 497 l 590 497 l 590 475 l 88 475 z m 267 1088 b 242 1060 253 1088 242 1076 b 267 1035 242 1047 253 1035 b 294 1060 283 1035 294 1047 b 267 1088 294 1076 283 1088 z m 435 1088 b 410 1060 421 1088 410 1076 b 435 1035 410 1047 421 1035 b 463 1060 451 1035 463 1047 b 435 1088 463 1076 451 1088 z "},"ì":{"ha":474,"x_min":0,"x_max":0,"o":"m 454 951 l 247 951 l 247 21 l 454 21 l 454 0 b 19 0 310 0 164 0 l 19 21 l 226 21 l 226 951 l 19 951 l 19 971 b 454 971 164 971 310 971 z m 256 1021 l 175 1125 l 138 1125 l 229 1021 z "},"í":{"ha":474,"x_min":0,"x_max":0,"o":"m 454 971 b 19 971 310 971 164 971 l 19 951 l 226 951 l 226 21 l 19 21 l 19 0 b 454 0 164 0 310 0 l 454 21 l 247 21 l 247 951 l 454 951 z m 249 1022 l 340 1126 l 303 1126 l 222 1022 z "},"î":{"ha":474,"x_min":0,"x_max":0,"o":"m 454 971 b 19 971 310 971 164 971 l 19 951 l 226 951 l 226 21 l 19 21 l 19 0 b 454 0 164 0 310 0 l 454 21 l 247 21 l 247 951 l 454 951 z m 161 1019 l 239 1103 l 315 1019 l 338 1019 l 257 1119 l 219 1119 l 139 1019 z "},"ï":{"ha":474,"x_min":0,"x_max":0,"o":"m 454 951 l 247 951 l 247 21 l 454 21 l 454 0 b 19 0 310 0 164 0 l 19 21 l 226 21 l 226 951 l 19 951 l 19 971 b 454 971 164 971 310 971 z m 153 1089 b 128 1061 139 1089 128 1078 b 153 1036 128 1049 139 1036 b 181 1061 169 1036 181 1049 b 153 1089 181 1078 169 1089 z m 321 1089 b 296 1061 307 1089 296 1078 b 321 1036 296 1049 307 1036 b 349 1061 338 1036 349 1049 b 321 1089 349 1078 338 1089 z "},"ñ":{"ha":817,"x_min":0,"x_max":0,"o":"m 88 0 l 88 928 l 729 0 l 751 0 l 751 972 l 731 972 l 731 39 l 85 972 l 65 974 l 65 0 z m 311 1033 b 340 1074 315 1054 326 1068 b 415 1050 364 1083 394 1072 b 494 1031 436 1028 468 1019 b 539 1085 518 1039 533 1060 l 524 1089 b 489 1049 519 1069 506 1056 b 429 1064 468 1042 444 1047 b 336 1092 406 1089 369 1106 b 294 1038 314 1083 300 1063 z "},"ò":{"ha":1044,"x_min":0,"x_max":0,"o":"m 996 486 b 858 822 996 618 943 736 b 522 964 772 910 653 964 b 188 822 392 964 274 910 b 49 486 103 736 49 618 b 188 150 49 354 103 236 b 522 8 274 63 392 8 b 858 150 653 8 772 63 b 996 486 943 236 996 354 z m 26 486 b 172 839 26 624 83 749 b 522 986 261 931 386 986 b 874 839 660 986 783 931 b 1019 486 963 749 1019 624 b 874 133 1019 349 963 224 b 522 -14 783 42 660 -14 b 172 133 386 -14 261 42 b 26 486 83 224 26 349 z m 560 1038 l 479 1142 l 442 1142 l 533 1038 z "},"ó":{"ha":1044,"x_min":0,"x_max":0,"o":"m 996 486 b 858 150 996 354 943 236 b 522 8 772 63 653 8 b 188 150 392 8 274 63 b 49 486 103 236 49 354 b 188 822 49 618 103 736 b 522 964 274 910 392 964 b 858 822 653 964 772 910 b 996 486 943 736 996 618 z m 26 486 b 172 133 26 349 83 224 b 522 -14 261 42 386 -14 b 874 133 660 -14 783 42 b 1019 486 963 224 1019 349 b 874 839 1019 624 963 749 b 522 986 783 931 660 986 b 172 839 386 986 261 931 b 26 486 83 749 26 624 z m 550 1035 l 642 1139 l 604 1139 l 524 1035 z "},"ô":{"ha":1044,"x_min":0,"x_max":0,"o":"m 996 486 b 858 150 996 354 943 236 b 522 8 772 63 653 8 b 188 150 392 8 274 63 b 49 486 103 236 49 354 b 188 822 49 618 103 736 b 522 964 274 910 392 964 b 858 822 653 964 772 910 b 996 486 943 736 996 618 z m 26 486 b 172 133 26 349 83 224 b 522 -14 261 42 386 -14 b 874 133 660 -14 783 42 b 1019 486 963 224 1019 349 b 874 839 1019 624 963 749 b 522 986 783 931 660 986 b 172 839 386 986 261 931 b 26 486 83 749 26 624 z m 460 1033 l 538 1117 l 614 1033 l 636 1033 l 556 1133 l 518 1133 l 438 1033 z "},"õ":{"ha":1044,"x_min":0,"x_max":0,"o":"m 996 486 b 858 150 996 354 943 236 b 522 8 772 63 653 8 b 188 150 392 8 274 63 b 49 486 103 236 49 354 b 188 822 49 618 103 736 b 522 964 274 910 392 964 b 858 822 653 964 772 910 b 996 486 943 736 996 618 z m 26 486 b 172 133 26 349 83 224 b 522 -14 261 42 386 -14 b 874 133 660 -14 783 42 b 1019 486 963 224 1019 349 b 874 839 1019 624 963 749 b 522 986 783 931 660 986 b 172 839 386 986 261 931 b 26 486 83 749 26 624 z m 440 1042 b 469 1082 444 1063 456 1076 b 544 1058 493 1092 524 1081 b 624 1039 565 1036 597 1028 b 668 1093 647 1047 663 1068 l 653 1097 b 618 1057 649 1078 635 1064 b 558 1072 597 1050 574 1056 b 465 1100 535 1097 499 1114 b 424 1046 443 1092 429 1071 z "},"ö":{"ha":1044,"x_min":0,"x_max":0,"o":"m 996 486 b 858 822 996 618 943 736 b 522 964 772 910 653 964 b 188 822 392 964 274 910 b 49 486 103 736 49 618 b 188 150 49 354 103 236 b 522 8 274 63 392 8 b 858 150 653 8 772 63 b 996 486 943 236 996 354 z m 26 486 b 172 839 26 624 83 749 b 522 986 261 931 386 986 b 874 839 660 986 783 931 b 1019 486 963 749 1019 624 b 874 133 1019 349 963 224 b 522 -14 783 42 660 -14 b 172 133 386 -14 261 42 b 26 486 83 224 26 349 z m 450 1103 b 425 1075 436 1103 425 1092 b 450 1050 425 1063 436 1050 b 478 1075 467 1050 478 1063 b 450 1103 478 1092 467 1103 z m 618 1103 b 593 1075 604 1103 593 1092 b 618 1050 593 1063 604 1050 b 646 1075 635 1050 646 1063 b 618 1103 646 1092 635 1103 z "},"ø":{"ha":1044,"x_min":0,"x_max":0,"o":"m 26 486 b 172 133 26 349 83 224 b 243 72 193 111 218 90 l 167 -49 l 193 -49 l 263 60 b 522 -14 338 13 428 -14 b 874 133 660 -14 783 42 b 1019 486 963 224 1019 349 b 874 839 1019 624 963 749 b 800 900 851 861 826 882 l 874 1015 l 846 1015 l 781 913 b 522 986 706 960 617 986 b 172 839 386 986 261 931 b 26 486 83 749 26 624 z m 996 486 b 858 150 996 354 943 236 b 522 8 772 63 653 8 b 275 79 432 8 347 33 l 788 881 b 858 822 813 864 836 843 b 996 486 943 736 996 618 z m 522 964 b 768 894 611 964 696 939 l 256 92 b 188 150 231 108 208 128 b 49 486 103 236 49 354 b 188 822 49 618 103 736 b 522 964 274 910 392 964 z "},"ù":{"ha":808,"x_min":0,"x_max":0,"o":"m 404 -11 b 64 264 243 -11 64 83 l 64 971 l 86 971 l 86 263 b 404 11 86 94 256 11 b 722 264 553 11 722 94 l 722 971 l 744 971 l 744 263 b 404 -11 744 83 564 -11 z m 438 1022 l 357 1126 l 319 1126 l 411 1022 z "},"ú":{"ha":808,"x_min":0,"x_max":0,"o":"m 404 -11 b 744 263 564 -11 744 83 l 744 971 l 722 971 l 722 264 b 404 11 722 94 553 11 b 86 263 256 11 86 94 l 86 971 l 64 971 l 64 264 b 404 -11 64 83 243 -11 z m 417 1019 l 508 1124 l 471 1124 l 390 1019 z "},"û":{"ha":808,"x_min":0,"x_max":0,"o":"m 404 -11 b 744 263 564 -11 744 83 l 744 971 l 722 971 l 722 264 b 404 11 722 94 553 11 b 86 263 256 11 86 94 l 86 971 l 64 971 l 64 264 b 404 -11 64 83 243 -11 z m 326 1028 l 404 1111 l 481 1028 l 503 1028 l 422 1128 l 385 1128 l 304 1028 z "},"ü":{"ha":808,"x_min":0,"x_max":0,"o":"m 404 -11 b 64 264 243 -11 64 83 l 64 971 l 86 971 l 86 263 b 404 11 86 94 256 11 b 722 264 553 11 722 94 l 722 971 l 744 971 l 744 263 b 404 -11 744 83 564 -11 z m 321 1089 b 296 1061 307 1089 296 1078 b 321 1036 296 1049 307 1036 b 349 1061 338 1036 349 1049 b 321 1089 349 1078 338 1089 z m 489 1089 b 464 1061 475 1089 464 1078 b 489 1036 464 1049 475 1036 b 517 1061 506 1036 517 1049 b 489 1089 517 1078 506 1089 z "}}}
